<svg width="42" height="70" viewBox="0 0 42 70" fill="none" xmlns="http://www.w3.org/2000/svg">
<g clip-path="url(#clip0_438_3405)">
<g opacity="0.8">
<path fill-rule="evenodd" clip-rule="evenodd" d="M35.6334 23.3523C36.2445 23.6765 36.716 24.1884 37.0478 24.7003C37.6939 25.7583 37.6415 27.0552 37.0129 28.1985L35.7905 30.2462C35.1444 31.3383 33.9396 32.0208 32.6998 32.0208C32.0886 32.0208 31.4076 31.8502 30.8488 31.5089C30.3948 31.2188 29.8709 31.1164 29.3121 31.1164C27.5834 31.1164 26.1341 32.5327 26.0817 34.2221C26.0817 36.1845 24.4752 37.7202 22.467 37.7202H20.0922C18.0666 37.7202 16.4601 36.1845 16.4601 34.2221C16.4252 32.5327 14.9758 31.1164 13.2471 31.1164C12.6709 31.1164 12.147 31.2188 11.7104 31.5089C11.1517 31.8502 10.4532 32.0208 9.85947 32.0208C8.60221 32.0208 7.39733 31.3383 6.75124 30.2462L5.54636 28.1985C4.90027 27.0893 4.86534 25.7583 5.51144 24.7003C5.79083 24.1884 6.31469 23.6765 6.9084 23.3523C7.39733 23.1134 7.71165 22.7209 8.0085 22.2602C8.8816 20.7926 8.35774 18.8644 6.87347 17.9941C5.14474 17.0215 4.58595 14.8543 5.58129 13.165L6.75124 11.1514C7.76404 9.46209 9.92932 8.86485 11.6755 9.85456C13.1947 10.6736 15.1679 10.1276 16.0585 8.67714C16.3379 8.19935 16.495 7.68742 16.4601 7.1755C16.4252 6.51 16.6173 5.87863 16.949 5.36671C17.5951 4.30873 18.7651 3.62617 20.0398 3.59204H22.502C23.7941 3.59204 24.9641 4.30873 25.6102 5.36671C25.9245 5.87863 26.1341 6.51 26.0817 7.1755C26.0467 7.68742 26.2039 8.19935 26.4833 8.67714C27.3739 10.1276 29.3471 10.6736 30.8837 9.85456C32.6125 8.86485 34.7952 9.46209 35.7905 11.1514L36.9605 13.165C37.9733 14.8543 37.4145 17.0215 35.6683 17.9941C34.184 18.8644 33.6602 20.7926 34.5507 22.2602C34.8301 22.7209 35.1444 23.1134 35.6334 23.3523ZM16.3379 20.6732C16.3379 23.3523 18.5555 25.4853 21.2971 25.4853C24.0386 25.4853 26.2039 23.3523 26.2039 20.6732C26.2039 17.9941 24.0386 15.8441 21.2971 15.8441C18.5555 15.8441 16.3379 17.9941 16.3379 20.6732Z" fill="white"/>
</g>
</g>
<defs>
<clipPath id="clip0_438_3405">
<rect width="41.0084" height="69.0045" fill="white" transform="translate(0.772446 0.179077)"/>
</clipPath>
</defs>
</svg>
