<svg width="36" height="37" viewBox="0 0 36 37" fill="none" xmlns="http://www.w3.org/2000/svg">
<g opacity="0.8">
<g clip-path="url(#clip0_14_64)">
<path d="M2.60472 6.84361H0.604721V11.8436H0.614721L0.604721 20.8436C0.604721 21.9436 1.50472 22.8436 2.60472 22.8436H20.6047V20.8436H2.60472V6.84361ZM22.6047 4.84361H14.6047L12.6047 2.84361H6.60472C5.50472 2.84361 4.61472 3.74361 4.61472 4.84361L4.60472 16.8436C4.60472 17.9436 5.50472 18.8436 6.60472 18.8436H22.6047C23.7047 18.8436 24.6047 17.9436 24.6047 16.8436V6.84361C24.6047 5.74361 23.7047 4.84361 22.6047 4.84361ZM7.60472 15.8436L12.1047 9.84361L15.6047 14.3536L18.1047 11.3436L21.6047 15.8436H7.60472Z" fill="white"/>
</g>
</g>
<defs>
<clipPath id="clip0_14_64">
<rect width="24" height="24" fill="white" transform="translate(0.604721 0.843605)"/>
</clipPath>
</defs>
</svg>
