<svg width="18" height="21" viewBox="0 0 18 21" fill="none" xmlns="http://www.w3.org/2000/svg">
<path fill-rule="evenodd" clip-rule="evenodd" d="M0 8.73365C0 3.90379 4.06999 0 8.99306 0C13.93 0 18 3.90379 18 8.73365C18 11.1675 17.1074 13.427 15.6383 15.3422C14.0176 17.4547 12.0199 19.2953 9.7714 20.74C9.25678 21.0739 8.79234 21.0991 8.22753 20.74C5.96619 19.2953 3.96856 17.4547 2.36171 15.3422C0.891512 13.427 0 11.1675 0 8.73365ZM5.17728 9.20875C5.17728 11.2761 6.84884 12.9021 8.89841 12.9021C10.9493 12.9021 12.637 11.2761 12.637 9.20875C12.637 7.15748 10.9493 5.45234 8.89841 5.45234C6.84884 5.45234 5.17728 7.15748 5.17728 9.20875Z" fill="#6E6B56"/>
</svg>
