<svg width="14" height="21" viewBox="0 0 14 21" fill="none" xmlns="http://www.w3.org/2000/svg">
<path d="M6.92932 6.3059C7.73099 6.3059 8.37377 5.48772 8.37377 4.48772C8.37377 4.14226 8.30154 3.82408 8.16432 3.55135L6.92932 0.851353L5.69432 3.55135C5.5571 3.82408 5.48488 4.14226 5.48488 4.48772C5.48488 5.48772 6.13488 6.3059 6.92932 6.3059ZM10.2515 15.3877L9.47877 14.415L8.69877 15.3877C7.75988 16.5695 6.11321 16.5786 5.1671 15.3877L4.39432 14.415L3.6071 15.3877C3.13765 15.9786 2.50932 16.3059 1.84488 16.3059C1.31765 16.3059 0.833766 16.0968 0.429321 15.7514V19.9423C0.429321 20.4423 0.754321 20.8514 1.15154 20.8514H12.7071C13.1043 20.8514 13.4293 20.4423 13.4293 19.9423V15.7514C13.0249 16.0968 12.541 16.3059 12.0138 16.3059C11.3493 16.3059 10.721 15.9786 10.2515 15.3877V15.3877ZM11.2627 9.03317H7.65154V7.21499H6.2071V9.03317H2.59599C1.3971 9.03317 0.429321 10.2514 0.429321 11.7604V13.1604C0.429321 14.1423 1.06488 14.9423 1.84488 14.9423C2.22043 14.9423 2.58154 14.7604 2.84154 14.4241L4.3871 12.4877L5.92543 14.4241C6.45988 15.0968 7.39154 15.0968 7.92599 14.4241L9.47154 12.4877L11.0099 14.4241C11.2771 14.7604 11.631 14.9423 12.0065 14.9423C12.7865 14.9423 13.4221 14.1423 13.4221 13.1604V11.7604C13.4293 10.2514 12.4615 9.03317 11.2627 9.03317Z" fill="#6E6B56"/>
</svg>
